<mxfile host="app.diagrams.net" modified="2022-06-06T00:52:57.533Z" agent="5.0 (Macintosh; Intel Mac OS X 10_15_7) AppleWebKit/537.36 (KHTML, like Gecko) Chrome/102.0.0.0 Safari/537.36" etag="hA4-2G82m5cs8_8WcD6j" version="18.2.1" type="github">
  <diagram id="jk84KoCiqGRbvonOO5nR" name="Page-1">
    <mxGraphModel dx="577" dy="311" grid="0" gridSize="10" guides="1" tooltips="1" connect="1" arrows="1" fold="1" page="1" pageScale="1" pageWidth="400" pageHeight="150" background="#EFF1F3" math="0" shadow="0">
      <root>
        <mxCell id="0" />
        <mxCell id="1" parent="0" />
        <mxCell id="XSbDL2rr6Gyu1OlXZJMn-3" value="&lt;font style=&quot;background-color: rgb(239 , 241 , 243) ; font-size: 10px&quot;&gt;&lt;font color=&quot;#4a919b&quot;&gt;&lt;font style=&quot;font-size: 10px&quot;&gt;yymmddhhmmss -&amp;nbsp;&lt;/font&gt;&lt;/font&gt;&lt;font color=&quot;#f19c99&quot;&gt;&lt;span style=&quot;font-size: 10px;&quot;&gt;00000000&lt;/span&gt;&lt;span style=&quot;font-size: 10px;&quot;&gt;&amp;nbsp;00&lt;/span&gt;&lt;/font&gt;&lt;span style=&quot;color: rgb(90 , 110 , 171) ; font-size: 10px&quot;&gt;&amp;nbsp;- 0000&amp;nbsp;&lt;/span&gt;&lt;font color=&quot;#5a6eab&quot; style=&quot;font-size: 10px&quot;&gt;00 - &lt;/font&gt;&lt;font color=&quot;#c89932&quot; style=&quot;font-size: 10px&quot;&gt;00 00&lt;/font&gt;&lt;/font&gt;" style="text;html=1;strokeColor=none;fillColor=none;align=center;verticalAlign=middle;whiteSpace=wrap;rounded=0;" parent="1" vertex="1">
          <mxGeometry x="23" y="66.25" width="327" height="24" as="geometry" />
        </mxCell>
        <mxCell id="TQc7ubPpzNLARLeVcl0p-5" value="" style="shape=curlyBracket;whiteSpace=wrap;html=1;rounded=1;fontColor=#C89932;rotation=90;strokeWidth=2;strokeColor=#4A919B;" parent="1" vertex="1">
          <mxGeometry x="90.38" y="17" width="13.5" height="90.5" as="geometry" />
        </mxCell>
        <mxCell id="TQc7ubPpzNLARLeVcl0p-6" value="&lt;font color=&quot;#4a919b&quot;&gt;12位 时间&lt;/font&gt;" style="text;html=1;strokeColor=none;fillColor=none;align=center;verticalAlign=middle;whiteSpace=wrap;rounded=0;fontSize=2;fontColor=#C89932;" parent="1" vertex="1">
          <mxGeometry x="52.63" y="22.25" width="89" height="30" as="geometry" />
        </mxCell>
        <mxCell id="TQc7ubPpzNLARLeVcl0p-9" value="" style="shape=curlyBracket;whiteSpace=wrap;html=1;rounded=1;flipH=1;fontSize=2;fontColor=#4A919B;strokeColor=#F19C99;strokeWidth=2;rotation=90;" parent="1" vertex="1">
          <mxGeometry x="182.38" y="59.5" width="12" height="68.5" as="geometry" />
        </mxCell>
        <mxCell id="TQc7ubPpzNLARLeVcl0p-10" value="&lt;font color=&quot;#f19c99&quot;&gt;10位 工作机器IP&lt;/font&gt;" style="text;html=1;strokeColor=none;fillColor=none;align=center;verticalAlign=middle;whiteSpace=wrap;rounded=0;fontSize=2;fontColor=#C89932;" parent="1" vertex="1">
          <mxGeometry x="140.38" y="103.25" width="96" height="30" as="geometry" />
        </mxCell>
        <mxCell id="TQc7ubPpzNLARLeVcl0p-11" value="" style="shape=curlyBracket;whiteSpace=wrap;html=1;rounded=1;fontColor=#C89932;rotation=90;strokeWidth=2;strokeColor=#5A6EAB;" parent="1" vertex="1">
          <mxGeometry x="250.13" y="41.45" width="13" height="42.09" as="geometry" />
        </mxCell>
        <mxCell id="TQc7ubPpzNLARLeVcl0p-12" value="&lt;font color=&quot;#5a6eab&quot;&gt;6位&amp;nbsp; 序列号&lt;/font&gt;" style="text;html=1;strokeColor=none;fillColor=none;align=center;verticalAlign=middle;whiteSpace=wrap;rounded=0;fontSize=2;fontColor=#C89932;" parent="1" vertex="1">
          <mxGeometry x="212.63" y="22.25" width="89" height="30" as="geometry" />
        </mxCell>
        <mxCell id="DXS0C3hiWCgnTAZ7id_l-2" value="" style="shape=curlyBracket;whiteSpace=wrap;html=1;rounded=1;flipH=1;fontSize=2;fontColor=#4A919B;strokeColor=#C89932;strokeWidth=2;rotation=90;" parent="1" vertex="1">
          <mxGeometry x="290.63" y="86.22" width="10" height="15.07" as="geometry" />
        </mxCell>
        <mxCell id="DXS0C3hiWCgnTAZ7id_l-3" value="2位 分库id" style="text;html=1;strokeColor=none;fillColor=none;align=center;verticalAlign=middle;whiteSpace=wrap;rounded=0;fontSize=2;fontColor=#C89932;" parent="1" vertex="1">
          <mxGeometry x="248.63" y="103.25" width="96" height="30" as="geometry" />
        </mxCell>
        <mxCell id="Rd1cbC24IZSksuekIVlL-1" value="" style="shape=curlyBracket;whiteSpace=wrap;html=1;rounded=1;fontColor=#C89932;rotation=90;strokeWidth=2;strokeColor=#C89932;" vertex="1" parent="1">
          <mxGeometry x="305.56" y="55.17" width="13.85" height="13.79" as="geometry" />
        </mxCell>
        <mxCell id="Rd1cbC24IZSksuekIVlL-2" value="2位&amp;nbsp; 分表id" style="text;html=1;strokeColor=none;fillColor=none;align=center;verticalAlign=middle;whiteSpace=wrap;rounded=0;fontSize=2;fontColor=#C89932;" vertex="1" parent="1">
          <mxGeometry x="280.63" y="22.25" width="89" height="30" as="geometry" />
        </mxCell>
      </root>
    </mxGraphModel>
  </diagram>
</mxfile>
